<svg width="18" height="18" viewBox="0 0 18 18" fill="none" xmlns="http://www.w3.org/2000/svg">
<path d="M1.59242 15.1874L0.956023 15.8238L2.22881 17.0966L2.86521 16.4602L1.59242 15.1874ZM16.4601 2.86526C16.8116 2.51379 16.8116 1.94394 16.4601 1.59247C16.1087 1.241 15.5388 1.241 15.1873 1.59247L16.4601 2.86526ZM6.0025 1.59247L5.3661 0.956075L4.09331 2.22887L4.72971 2.86526L6.0025 1.59247ZM15.9726 3.09229C16.4495 2.95203 16.7223 2.45176 16.5821 1.9749C16.4418 1.49805 15.9415 1.22518 15.4647 1.36545L15.9726 3.09229ZM15.1347 13.2704L15.7711 13.9068L17.0439 12.634L16.4075 11.9976L15.1347 13.2704ZM2.86521 16.4602L16.4075 2.91786L15.1347 1.64507L1.59242 15.1874L2.86521 16.4602ZM16.4075 2.91786L16.4601 2.86526L15.1873 1.59247L15.1347 1.64507L16.4075 2.91786ZM4.72971 2.86526C5.53904 3.6746 6.73581 3.99961 7.88498 4.11688C9.06243 4.23703 10.3592 4.15521 11.5392 4.00392C12.7258 3.85178 13.8309 3.62443 14.6367 3.43615C15.0406 3.34178 15.3716 3.25667 15.6029 3.19481C15.7186 3.16386 15.8094 3.13869 15.8721 3.12103C15.9035 3.1122 15.9278 3.10525 15.9447 3.10039C15.9531 3.09796 15.9597 3.09605 15.9644 3.09469C15.9667 3.09401 15.9686 3.09347 15.9699 3.09307C15.9706 3.09287 15.9712 3.09271 15.9716 3.09258C15.9719 3.09251 15.9721 3.09244 15.9722 3.09241C15.9724 3.09235 15.9726 3.09229 15.7186 2.22887C15.4647 1.36545 15.4648 1.36541 15.4649 1.36538C15.4649 1.36539 15.4649 1.36537 15.4649 1.36538C15.4648 1.36539 15.4647 1.36544 15.4644 1.36552C15.4638 1.36569 15.4628 1.366 15.4613 1.36644C15.4582 1.36733 15.4533 1.36876 15.4465 1.37071C15.433 1.37461 15.4121 1.38058 15.3843 1.38841C15.3287 1.40407 15.2454 1.42715 15.1377 1.45595C14.9223 1.51357 14.61 1.59391 14.2272 1.68336C13.4595 1.86273 12.4177 2.07656 11.3103 2.21854C10.1962 2.36137 9.05195 2.42661 8.06771 2.32618C7.05519 2.22285 6.36965 1.95962 6.0025 1.59247L4.72971 2.86526ZM15.7711 2.28146C14.9427 1.92983 14.9426 1.93007 14.9425 1.93033C14.9424 1.93045 14.9423 1.93074 14.9422 1.93099C14.942 1.93149 14.9417 1.9321 14.9414 1.93283C14.9408 1.93427 14.94 1.93615 14.939 1.93848C14.9371 1.94312 14.9344 1.94951 14.9311 1.95761C14.9243 1.9738 14.9149 1.99681 14.9029 2.0263C14.8791 2.08527 14.8453 2.17018 14.804 2.27823C14.7214 2.49419 14.6082 2.80331 14.4828 3.18296C14.2327 3.93986 13.9304 4.98883 13.7278 6.14575C13.5263 7.29707 13.4167 8.59294 13.5772 9.83076C13.738 11.0702 14.1787 12.3144 15.1347 13.2704L16.4075 11.9976C15.8212 11.4112 15.4908 10.5902 15.3623 9.5993C15.2336 8.60683 15.3168 7.50737 15.5009 6.45615C15.6839 5.41053 15.96 4.44976 16.1919 3.74755C16.3075 3.39765 16.4112 3.11487 16.4852 2.92133C16.5222 2.82462 16.5517 2.75038 16.5716 2.70137C16.5815 2.67688 16.5889 2.6587 16.5937 2.64721C16.5961 2.64146 16.5978 2.63738 16.5988 2.63501C16.5993 2.63383 16.5996 2.63307 16.5998 2.63275C16.5998 2.63259 16.5998 2.63254 16.5998 2.6326C16.5998 2.63262 16.5998 2.63275 16.5997 2.63276C16.5997 2.63292 16.5996 2.6331 15.7711 2.28146Z" fill="#040404"/>
</svg>
