<svg width="18" height="10" viewBox="0 0 18 10" fill="none" xmlns="http://www.w3.org/2000/svg">
<path d="M16.3575 2.2399H17.2575V0.439904H16.3575V2.2399ZM8.24709 8.22929C8.00908 8.66566 8.16988 9.21235 8.60625 9.45036C9.04262 9.68837 9.58931 9.52757 9.82732 9.0912L8.24709 8.22929ZM8.12843 8.99736C8.31464 9.45821 8.8392 9.68085 9.30005 9.49464C9.76091 9.30843 9.98355 8.78387 9.79734 8.32301L8.12843 8.99736ZM1.64254 0.439844H0.742541V2.23984H1.64254V0.439844ZM16.3575 0.439904C15.213 0.439904 14.1369 1.05633 13.2414 1.78599C12.3239 2.53361 11.4648 3.50843 10.7374 4.44978C10.0059 5.39642 9.38522 6.3386 8.94856 7.04154C8.7297 7.39385 8.55582 7.68809 8.43603 7.89538C8.37611 7.99906 8.32965 8.08112 8.29779 8.13794C8.28187 8.16636 8.26958 8.18848 8.26108 8.20385C8.25683 8.21153 8.25353 8.21753 8.25119 8.22179C8.25002 8.22392 8.2491 8.22562 8.24841 8.22687C8.24807 8.2275 8.24779 8.22801 8.24757 8.22841C8.24746 8.22862 8.24734 8.22884 8.24728 8.22894C8.24718 8.22913 8.24709 8.22929 9.0372 8.66024C9.82732 9.0912 9.82726 9.0913 9.82721 9.09138C9.82722 9.09137 9.82719 9.09143 9.8272 9.0914C9.82722 9.09136 9.82731 9.09121 9.82745 9.09095C9.82773 9.09043 9.82826 9.08947 9.82902 9.08808C9.83055 9.0853 9.83302 9.08081 9.83643 9.07464C9.84325 9.06231 9.85379 9.04332 9.86791 9.01813C9.89617 8.96772 9.93875 8.8925 9.9945 8.79602C10.1061 8.60297 10.2701 8.32531 10.4776 7.99134C10.8935 7.32172 11.479 6.43381 12.1617 5.55037C12.8484 4.66163 13.6114 3.80637 14.3784 3.18142C15.1674 2.53852 15.8383 2.2399 16.3575 2.2399V0.439904ZM8.96288 8.66018C9.79734 8.32301 9.79724 8.32278 9.79713 8.32251C9.79708 8.32239 9.79697 8.32209 9.79686 8.32184C9.79666 8.32134 9.79641 8.32072 9.79612 8.32C9.79553 8.31855 9.79475 8.31665 9.7938 8.31432C9.7919 8.30966 9.78926 8.30325 9.78591 8.29515C9.77921 8.27896 9.76963 8.25599 9.75722 8.2267C9.73239 8.16814 9.6962 8.08424 9.64903 7.97862C9.55474 7.7675 9.41622 7.46885 9.23645 7.11171C8.87803 6.39971 8.3501 5.44418 7.67525 4.48289C7.00366 3.52626 6.16481 2.53248 5.17604 1.7707C4.18598 1.00792 2.99454 0.439844 1.64254 0.439844V2.23984C2.47178 2.23984 3.286 2.58681 4.07749 3.19659C4.87027 3.80738 5.58884 4.64368 6.20203 5.51713C6.81196 6.38594 7.29614 7.26049 7.62866 7.92105C7.79435 8.2502 7.921 8.52345 8.0055 8.71266C8.04773 8.8072 8.07935 8.88058 8.09998 8.92925C8.11029 8.95358 8.11786 8.97171 8.12261 8.98322C8.12499 8.98897 8.12667 8.99306 8.12764 8.99543C8.12813 8.99662 8.12844 8.99738 8.12857 8.9977C8.12863 8.99786 8.12865 8.99792 8.12863 8.99786C8.12862 8.99783 8.12857 8.9977 8.12856 8.99769C8.1285 8.99754 8.12843 8.99736 8.96288 8.66018Z" fill="#040404"/>
</svg>
